<?xml version="1.0" encoding="UTF-8"?>
<svg width="257px" height="41px" viewBox="0 0 257 41" version="1.1" xmlns="http://www.w3.org/2000/svg" xmlns:xlink="http://www.w3.org/1999/xlink">
    <!-- Generator: Sketch 52.2 (67145) - http://www.bohemiancoding.com/sketch -->
    <title>Logos/Logotipo/Colored/Small (257x41)</title>
    <desc>Created with Sketch.</desc>
    <g id="Logos/Logotipo/Colored/Small-(257x41)" stroke="none" stroke-width="1" fill="none" fill-rule="evenodd">
        <g id="vetor" transform="translate(128.500000, 20.500000) scale(-1, 1) rotate(-180.000000) translate(-128.500000, -20.500000) translate(0.000000, 0.000000)" fill-rule="nonzero">
            <path d="M14.4631044,31.1878158 L13.0135154,23.3965639 C14.3261396,23.4245363 15.3393985,23.7503454 16.0537874,24.3705095 C16.7673506,24.9906345 17.2481933,25.9645802 17.4957788,27.2924246 C17.7370879,28.5920229 17.6344778,29.5659294 17.1881963,30.2139094 C16.7425342,30.8655277 15.9596009,31.1878158 14.8410067,31.1878158 L14.4631044,31.1878158 Z M-3.6e-15,5.2831708 L6.08343445,37.9737071 L17.1667246,37.9737071 C20.916059,37.9737071 23.7011478,37.0699074 25.5241383,35.2641861 C27.3461379,33.4579952 27.9684049,31.0021422 27.3904852,27.896666 C27.0354585,25.9873492 26.2478593,24.3564256 25.0268615,23.0042863 C23.8066483,21.6553158 22.1530366,20.5764055 20.0658613,19.7708807 L24.1985898,5.2831708 L13.9898594,5.2831708 L11.9967055,17.9351918 L9.64146401,5.2831708 L-3.6e-15,5.2831708 Z" id="path22" fill="#90B823"></path>
            <path d="M35.4483271,19.6356355 L40.6230535,19.6356355 C40.8643213,20.9338645 40.8293472,21.907771 40.5167272,22.555751 C40.2044788,23.2075258 39.614791,23.5316527 38.7494393,23.5316527 C38.0708503,23.5316527 37.464398,23.2144113 36.9292153,22.5803588 C36.3940326,21.9463063 35.8996462,20.9654752 35.4483271,19.6356355 M46.7703663,13.3004704 C45.9226462,10.6130926 44.4299486,8.49728912 42.2914476,6.95227767 C40.1525337,5.40726622 37.6345614,4.6347605 34.735755,4.6347605 C31.3328586,4.6347605 28.9037461,5.67544847 27.4469311,7.75811546 C25.9918915,9.84258206 25.6220411,12.8065534 26.3394857,16.6599275 C27.0587058,20.5239819 28.5469852,23.5226546 30.8025484,25.6580191 C33.0587309,27.7932271 35.8569092,28.8599313 39.1967118,28.8599313 C42.8360861,28.8599313 45.3771819,27.9122758 46.8211552,26.0171212 C48.2630639,24.1218492 48.629322,21.2630382 47.9182776,17.4411574 C47.8352812,16.9961431 47.7675627,16.653042 47.7167738,16.4233559 C47.6659849,16.1903053 47.6065247,15.9801803 47.5392192,15.7857824 L34.7310477,15.7857824 L34.6728263,15.4724924 C34.3586372,13.7838244 34.3352248,12.5750286 34.6005657,11.8445401 C34.8659067,11.1125258 35.4555945,10.7480248 36.3690098,10.7480248 C37.0466078,10.7480248 37.6327858,10.9566632 38.1281219,11.3733922 C38.6237884,11.7921164 39.0470291,12.435167 39.3973485,13.3004704 L46.7703663,13.3004704" id="path24" fill="#90B823"></path>
            <path d="M61.886046,5.64231202 C61.1923442,5.29874141 60.4639573,5.04659924 59.7008853,4.8820124 C58.9369875,4.71726908 58.0913319,4.6347605 57.1614412,4.6347605 C54.0422606,4.6347605 51.7860781,5.71214504 50.391242,7.87043511 C48.9959929,10.0262605 48.6487291,12.9848721 49.3482118,16.7473263 C50.034894,20.4345878 51.5077715,23.3756336 53.7676703,25.5687815 C56.0271562,27.7615773 58.6921272,28.8599313 61.7646481,28.8599313 C62.6152587,28.8599313 63.3936086,28.7845821 64.0976334,28.6375611 C64.8028969,28.4868626 65.4482873,28.2554943 66.0362821,27.9437691 L64.7281587,20.9129342 C64.4618268,21.0914094 64.1789781,21.2229771 63.878787,21.3050553 C63.5794216,21.3859208 63.2482616,21.4277815 62.8861327,21.4277815 C61.9723458,21.4277815 61.1655045,21.0075315 60.4668477,20.1735649 C59.7681909,19.3381116 59.2838384,18.1942586 59.014616,16.7473263 C58.7420903,15.2848235 58.7883371,14.1849828 59.1562468,13.4438139 C59.5220919,12.7064399 60.2025803,12.3369313 61.1944087,12.3369313 C61.4772574,12.3369313 61.7890103,12.3789485 62.126777,12.4596183 C62.4645437,12.5436918 62.8287371,12.659063 63.2193573,12.8065534 L61.886046,5.64231202" id="path26" fill="#90B823"></path>
            <polyline id="path28" fill="#90B823" points="64.5840504 5.2831708 71.222116 40.9514885 79.9887725 40.9514885 73.3519457 5.2831708 64.5840504 5.2831708"></polyline>
            <path d="M87.5835684,16.7473263 C87.2813127,15.1182805 87.2313496,13.8957137 87.4328535,13.0762615 C87.6343573,12.2543836 88.0893927,11.8445401 88.7991983,11.8445401 C89.508178,11.8445401 90.125903,12.2651031 90.652786,13.1109628 C91.1804949,13.9519323 91.5909351,15.1656183 91.8857584,16.7473263 C92.1851237,18.3588454 92.2284801,19.5887281 92.0150016,20.432749 C91.8027619,21.2737185 91.3411199,21.697646 90.632553,21.697646 C89.9388512,21.697646 89.3335138,21.277083 88.815715,20.4399475 C88.2970903,19.6062939 87.8878888,18.3764113 87.5835684,16.7473263 M89.9409158,5.2831708 L90.411642,7.81417748 C89.3388817,6.71050286 88.2962645,5.90317844 87.279661,5.39502099 C86.2638834,4.8888979 85.2125948,4.6347605 84.1245566,4.6347605 C81.7147686,4.6347605 80.0259351,5.69806107 79.0601205,7.82458397 C78.0922413,9.95106775 77.9646497,12.9252891 78.6756941,16.7473263 C79.3925193,20.5974924 80.6213625,23.5805553 82.3597461,25.6931508 C84.1006073,27.803751 86.1916228,28.8599313 88.6327924,28.8599313 C89.7365215,28.8599313 90.697794,28.6094323 91.5186745,28.110312 C92.3395549,27.6110744 93.081981,26.8157996 93.7455398,25.7261698 L94.2075948,28.2117948 L102.974664,28.2117948 L98.7088111,5.2831708 L89.9409158,5.2831708" id="path30" fill="#90B823"></path>
            <path d="M101.921724,5.2831708 L106.188816,28.2117948 L114.601602,28.2117948 L113.96736,24.8084819 C115.031449,26.122125 116.177296,27.0925496 117.404487,27.7195601 C118.631679,28.3467271 119.986049,28.6583349 121.466772,28.6583349 C122.85335,28.6583349 123.939737,28.3432061 124.727996,27.7056718 C125.515844,27.0716193 125.993589,26.1045592 126.16206,24.8084819 C127.083692,26.122125 128.130852,27.0925496 129.303125,27.7195601 C130.474986,28.3467271 131.809949,28.6583349 133.306775,28.6583349 C135.15004,28.6583349 136.458989,28.1364456 137.233623,27.0925496 C138.007018,26.044937 138.208522,24.5248464 137.83607,22.5244141 L134.627286,5.2831708 L125.86063,5.2831708 L128.343504,18.6285534 C128.476877,19.3434714 128.442604,19.8740458 128.23821,20.2155821 C128.033816,20.5608349 127.655583,20.7341069 127.104751,20.7341069 C126.600165,20.7341069 126.169492,20.5345448 125.812318,20.1387462 C125.455558,19.7426345 125.211523,19.1944552 125.081454,18.4940906 L122.623355,5.2831708 L113.902945,5.2831708 L116.386645,18.6285534 C116.519605,19.3434714 116.484507,19.8740458 116.280112,20.2155821 C116.076957,20.5608349 115.698724,20.7341069 115.147892,20.7341069 C114.627616,20.7341069 114.184555,20.5345448 113.819536,20.1387462 C113.454516,19.7426345 113.207592,19.1944552 113.076697,18.4940906 L110.618597,5.2831708 L101.921724,5.2831708" id="path32" fill="#90B823"></path>
            <path d="M148.098315,19.6356355 L153.273,19.6356355 C153.515382,20.9338645 153.480284,21.907771 153.167706,22.555751 C152.85554,23.2075258 152.264655,23.5316527 151.399592,23.5316527 C150.721994,23.5316527 150.114592,23.2144113 149.579451,22.5803588 C149.044309,21.9463063 148.549634,20.9654752 148.098315,19.6356355 M159.419693,13.3004704 C158.572799,10.6130926 157.080927,8.49728912 154.9416,6.95227767 C152.803925,5.40726622 150.284714,4.6347605 147.386031,4.6347605 C143.983176,4.6347605 141.553156,5.67544847 140.098033,7.75811546 C138.642085,9.84258206 138.272111,12.8065534 138.989762,16.6599275 C139.709065,20.5239819 141.195982,23.5226546 143.453403,25.6580191 C145.709173,27.7932271 148.507103,28.8599313 151.846782,28.8599313 C155.487478,28.8599313 158.027335,27.9122758 159.471308,26.0171212 C160.914042,24.1218492 161.2803,21.2630382 160.569256,17.4411574 C160.485434,16.9961431 160.417715,16.653042 160.367752,16.4233559 C160.316138,16.1903053 160.257916,15.9801803 160.189372,15.7857824 L147.381489,15.7857824 L147.322855,15.4724924 C147.008625,13.7838244 146.984675,12.5750286 147.250594,11.8445401 C147.516101,11.1125258 148.10616,10.7480248 149.02036,10.7480248 C149.697545,10.7480248 150.283888,10.9566632 150.778151,11.3733922 C151.274065,11.7921164 151.696893,12.435167 152.046634,13.3004704 L159.419693,13.3004704" id="path34" fill="#90B823"></path>
            <path d="M171.845214,16.7019447 L175.672548,16.7019447 L175.990082,28.8161927 L171.845214,16.7019447 Z M158.637627,5.2831708 L172.282906,37.9737071 L183.129843,37.9737071 L184.583726,5.2831708 L175.202648,5.2831708 L175.366163,10.0980887 L169.670789,10.0980887 L168.042241,5.2831708 L158.637627,5.2831708 Z" id="path36" fill="#007535"></path>
            <path d="M197.801636,21.8307786 C197.170284,18.4395153 196.975387,16.1204723 197.214879,14.8660992 C197.453959,13.6119218 198.164177,12.9848721 199.345535,12.9848721 C200.511202,12.9848721 201.441093,13.6015153 202.135207,14.8329628 C202.828496,16.0642147 203.495771,18.3974981 204.133729,21.8307786 C204.773339,25.2637462 204.974843,27.5969905 204.741957,28.8372796 C204.506181,30.0774513 203.806285,30.6974198 202.641031,30.6974198 C201.459674,30.6974198 200.515744,30.0685706 199.81048,28.8161927 C199.103978,27.5620153 198.433813,25.2324094 197.801636,21.8307786 M201.749129,0 L198.91032,4.6787729 C198.800071,4.6787729 198.629123,4.6718874 198.398302,4.65768607 C198.165829,4.6436021 197.99612,4.6347605 197.885871,4.6347605 C193.741828,4.6347605 190.811351,6.11146469 189.091962,9.06808111 C187.374637,12.0218025 187.017876,16.2045067 188.022918,21.6064132 C189.029611,27.0084761 190.938117,31.1965401 193.752151,34.1657147 C196.565773,37.136376 200.020243,38.6218044 204.117212,38.6218044 C208.196427,38.6218044 211.083135,37.1417357 212.776923,34.1779208 C214.471125,31.2157882 214.813846,27.0243989 213.804675,21.6064132 C213.224113,18.4848969 212.342534,15.7769017 211.158286,13.4789456 C209.975276,11.180833 208.462759,9.2400229 206.624036,7.65647615 L210.103281,3.49287529 L201.749129,0" id="path38" fill="#007535"></path>
            <path d="M215.56577,16.9716918 L219.474036,37.9737071 L229.092129,37.9737071 L225.021173,16.0975468 C224.842792,15.1431622 224.892755,14.437125 225.170649,13.9832691 C225.44813,13.5278483 225.965929,13.3004704 226.721981,13.3004704 C227.492898,13.3004704 228.102365,13.5278483 228.550381,13.9832691 C228.997158,14.437125 229.309324,15.1431622 229.487291,16.0975468 L233.559073,37.9737071 L243.224238,37.9737071 L239.315972,16.9716918 C238.520692,12.7010802 236.982987,9.57972042 234.70079,7.60025763 C232.418181,5.62275095 229.220546,4.6347605 225.109124,4.6347605 C221.01298,4.6347605 218.200185,5.62275095 216.669499,7.60025763 C215.139226,9.57972042 214.770903,12.7010802 215.56577,16.9716918" id="path40" fill="#007535"></path>
            <polyline id="path42" fill="#007535" points="241.1101 5.2831708 247.193204 37.9737071 256.834833 37.9737071 250.752555 5.2831708 241.1101 5.2831708"></polyline>
        </g>
    </g>
</svg>